<mxfile host="Electron" agent="Mozilla/5.0 (Macintosh; Intel Mac OS X 10_15_7) AppleWebKit/537.36 (KHTML, like Gecko) draw.io/26.2.15 Chrome/134.0.6998.205 Electron/35.2.1 Safari/537.36" version="26.2.15">
  <diagram name="Page-1" id="bedrock-kb-architecture">
    <mxGraphModel dx="1992" dy="1244" grid="1" gridSize="10" guides="1" tooltips="1" connect="1" arrows="1" fold="1" page="1" pageScale="1" pageWidth="1400" pageHeight="900" math="0" shadow="0">
      <root>
        <mxCell id="0" />
        <mxCell id="1" parent="0" />
        <mxCell id="GsRXVs9v4z8RuMBvvd-P-30" value="" style="rounded=1;whiteSpace=wrap;html=1;fontSize=20;fillColor=none;arcSize=2;dashed=1;" vertex="1" parent="1">
          <mxGeometry x="5" y="10" width="1390" height="820" as="geometry" />
        </mxCell>
        <mxCell id="container" value="Deployed Resources" style="rounded=1;whiteSpace=wrap;html=1;fontSize=16;fillColor=none;arcSize=2;dashed=1;labelPosition=center;verticalLabelPosition=bottom;align=center;verticalAlign=top;" parent="1" vertex="1">
          <mxGeometry x="276" y="130" width="1104" height="650" as="geometry" />
        </mxCell>
        <mxCell id="vector-store-container" value="Vector Store" style="rounded=0;whiteSpace=wrap;html=1;labelPosition=center;verticalLabelPosition=bottom;align=center;verticalAlign=top;fillColor=none;strokeColor=default;dashed=1;strokeWidth=2;" parent="1" vertex="1">
          <mxGeometry x="1086" y="190" width="274" height="290" as="geometry" />
        </mxCell>
        <mxCell id="GsRXVs9v4z8RuMBvvd-P-26" value="Aurora Serverless" style="rounded=0;whiteSpace=wrap;html=1;labelPosition=center;verticalLabelPosition=bottom;align=center;verticalAlign=top;fillColor=#e1d5e7;strokeColor=#9673a6;dashed=1;" vertex="1" parent="1">
          <mxGeometry x="1096" y="220" width="114" height="230" as="geometry" />
        </mxCell>
        <mxCell id="aurora" value="Aurora PostgreSQL&#xa;with pgvector" style="sketch=0;points=[[0,0,0],[0.25,0,0],[0.5,0,0],[0.75,0,0],[1,0,0],[0,1,0],[0.25,1,0],[0.5,1,0],[0.75,1,0],[1,1,0],[0,0.25,0],[0,0.5,0],[0,0.75,0],[1,0.25,0],[1,0.5,0],[1,0.75,0]];outlineConnect=0;fontColor=#232F3E;gradientColor=#4D72F3;gradientDirection=north;fillColor=#3334B9;strokeColor=#ffffff;dashed=0;verticalLabelPosition=bottom;verticalAlign=top;align=center;html=1;fontSize=12;fontStyle=0;aspect=fixed;shape=mxgraph.aws4.resourceIcon;resIcon=mxgraph.aws4.rds;" parent="1" vertex="1">
          <mxGeometry x="1124" y="234" width="64" height="64" as="geometry" />
        </mxCell>
        <mxCell id="sg" value="Security Group" style="sketch=0;points=[[0,0,0],[0.25,0,0],[0.5,0,0],[0.75,0,0],[1,0,0],[0,1,0],[0.25,1,0],[0.5,1,0],[0.75,1,0],[1,1,0],[0,0.25,0],[0,0.5,0],[0,0.75,0],[1,0.25,0],[1,0.5,0],[1,0.75,0]];outlineConnect=0;fontColor=#232F3E;gradientColor=#F78E04;gradientDirection=north;fillColor=#D05C17;strokeColor=#ffffff;dashed=0;verticalLabelPosition=bottom;verticalAlign=top;align=center;html=1;fontSize=12;fontStyle=0;aspect=fixed;shape=mxgraph.aws4.resourceIcon;resIcon=mxgraph.aws4.security_group;" parent="1" vertex="1">
          <mxGeometry x="1124" y="360" width="64" height="64" as="geometry" />
        </mxCell>
        <mxCell id="GsRXVs9v4z8RuMBvvd-P-18" style="edgeStyle=orthogonalEdgeStyle;rounded=0;orthogonalLoop=1;jettySize=auto;html=1;dashed=1;" edge="1" parent="1" source="s3-container" target="GsRXVs9v4z8RuMBvvd-P-17">
          <mxGeometry relative="1" as="geometry">
            <Array as="points">
              <mxPoint x="515" y="170" />
              <mxPoint x="515" y="170" />
            </Array>
          </mxGeometry>
        </mxCell>
        <mxCell id="GsRXVs9v4z8RuMBvvd-P-19" value="foundation model&lt;div&gt;parsing&lt;/div&gt;&lt;div&gt;(optional)&lt;/div&gt;" style="edgeLabel;html=1;align=center;verticalAlign=middle;resizable=0;points=[];" vertex="1" connectable="0" parent="GsRXVs9v4z8RuMBvvd-P-18">
          <mxGeometry x="0.1623" y="-3" relative="1" as="geometry">
            <mxPoint x="-3" y="15" as="offset" />
          </mxGeometry>
        </mxCell>
        <mxCell id="s3-container" value="S3 Data Sources" style="rounded=0;whiteSpace=wrap;html=1;labelPosition=center;verticalLabelPosition=bottom;align=center;verticalAlign=top;fillColor=none;strokeColor=#d6b656;dashed=1;strokeWidth=2;" parent="1" vertex="1">
          <mxGeometry x="301" y="249" width="300" height="210" as="geometry" />
        </mxCell>
        <mxCell id="GsRXVs9v4z8RuMBvvd-P-10" style="edgeStyle=orthogonalEdgeStyle;rounded=0;orthogonalLoop=1;jettySize=auto;html=1;" edge="1" parent="1" source="s3" target="s3-container">
          <mxGeometry relative="1" as="geometry">
            <Array as="points">
              <mxPoint x="361" y="180" />
              <mxPoint x="361" y="180" />
            </Array>
          </mxGeometry>
        </mxCell>
        <mxCell id="GsRXVs9v4z8RuMBvvd-P-25" value="Sync" style="edgeLabel;html=1;align=center;verticalAlign=middle;resizable=0;points=[];" vertex="1" connectable="0" parent="GsRXVs9v4z8RuMBvvd-P-10">
          <mxGeometry x="0.0861" y="2" relative="1" as="geometry">
            <mxPoint as="offset" />
          </mxGeometry>
        </mxCell>
        <mxCell id="s3" value="S3 Bucket" style="sketch=0;points=[[0,0,0],[0.25,0,0],[0.5,0,0],[0.75,0,0],[1,0,0],[0,1,0],[0.25,1,0],[0.5,1,0],[0.75,1,0],[1,1,0],[0,0.25,0],[0,0.5,0],[0,0.75,0],[1,0.25,0],[1,0.5,0],[1,0.75,0]];outlineConnect=0;fontColor=#232F3E;gradientColor=#60A337;gradientDirection=north;fillColor=#277116;strokeColor=#ffffff;dashed=0;verticalLabelPosition=bottom;verticalAlign=top;align=center;html=1;fontSize=12;fontStyle=0;aspect=fixed;shape=mxgraph.aws4.resourceIcon;resIcon=mxgraph.aws4.s3;" parent="1" vertex="1">
          <mxGeometry x="322" y="20" width="78" height="78" as="geometry" />
        </mxCell>
        <mxCell id="datasource" value="Data Source(s)" style="sketch=0;points=[[0,0,0],[0.25,0,0],[0.5,0,0],[0.75,0,0],[1,0,0],[0,1,0],[0.25,1,0],[0.5,1,0],[0.75,1,0],[1,1,0],[0,0.25,0],[0,0.5,0],[0,0.75,0],[1,0.25,0],[1,0.5,0],[1,0.75,0]];outlineConnect=0;fontColor=#232F3E;fillColor=#01A88D;strokeColor=#ffffff;dashed=0;verticalLabelPosition=bottom;verticalAlign=top;align=center;html=1;fontSize=12;fontStyle=0;aspect=fixed;shape=mxgraph.aws4.resourceIcon;resIcon=mxgraph.aws4.bedrock;" parent="1" vertex="1">
          <mxGeometry x="491" y="309" width="78" height="78" as="geometry" />
        </mxCell>
        <mxCell id="embedding" value="Embedding Model" style="sketch=0;outlineConnect=0;fontColor=#232F3E;gradientColor=none;fillColor=#067F68;strokeColor=none;dashed=0;verticalLabelPosition=bottom;verticalAlign=top;align=center;html=1;fontSize=12;fontStyle=0;aspect=fixed;pointerEvents=1;shape=mxgraph.aws4.sagemaker_model;" parent="1" vertex="1">
          <mxGeometry x="676" y="10" width="78" height="78" as="geometry" />
        </mxCell>
        <mxCell id="kb-role-container" value="KB Role" style="group;labelPosition=center;verticalLabelPosition=top;align=center;verticalAlign=bottom;fontSize=14;" parent="1" vertex="1" connectable="0">
          <mxGeometry x="166" y="600" width="72" height="68" as="geometry" />
        </mxCell>
        <mxCell id="kb-role-bg" value="" style="rounded=0;whiteSpace=wrap;html=1;verticalAlign=bottom;fillColor=#C7131F;strokeColor=#ffffff;fontColor=#232F3E;sketch=0;gradientColor=#F54749;gradientDirection=north;dashed=0;fontStyle=0;labelPosition=center;verticalLabelPosition=top;align=center;" parent="kb-role-container" vertex="1">
          <mxGeometry width="72" height="68" as="geometry" />
        </mxCell>
        <mxCell id="kb-role-icon" value="" style="sketch=0;outlineConnect=0;dashed=0;verticalLabelPosition=bottom;verticalAlign=top;align=center;html=1;fontSize=12;fontStyle=0;aspect=fixed;pointerEvents=1;shape=mxgraph.aws4.role;" parent="kb-role-container" vertex="1">
          <mxGeometry x="5" y="17" width="60.27" height="34" as="geometry" />
        </mxCell>
        <mxCell id="GsRXVs9v4z8RuMBvvd-P-23" style="edgeStyle=orthogonalEdgeStyle;rounded=0;orthogonalLoop=1;jettySize=auto;html=1;entryX=1;entryY=0.5;entryDx=0;entryDy=0;" edge="1" parent="1" source="kb-policies" target="kb-role-bg">
          <mxGeometry relative="1" as="geometry" />
        </mxCell>
        <mxCell id="kb-policies" value="Knowledgebase Execution Policies" style="sketch=0;points=[[0,0,0],[0.25,0,0],[0.5,0,0],[0.75,0,0],[1,0,0],[0,1,0],[0.25,1,0],[0.5,1,0],[0.75,1,0],[1,1,0],[0,0.25,0],[0,0.5,0],[0,0.75,0],[1,0.25,0],[1,0.5,0],[1,0.75,0]];outlineConnect=0;fontColor=#232F3E;gradientColor=#F54749;gradientDirection=north;fillColor=#C7131F;strokeColor=#ffffff;dashed=0;verticalLabelPosition=bottom;verticalAlign=top;align=center;html=1;fontSize=12;fontStyle=0;aspect=fixed;shape=mxgraph.aws4.resourceIcon;resIcon=mxgraph.aws4.identity_and_access_management;" parent="1" vertex="1">
          <mxGeometry x="407" y="520" width="69" height="69" as="geometry" />
        </mxCell>
        <mxCell id="kb-kms" value="KMS Key" style="sketch=0;points=[[0,0,0],[0.25,0,0],[0.5,0,0],[0.75,0,0],[1,0,0],[0,1,0],[0.25,1,0],[0.5,1,0],[0.75,1,0],[1,1,0],[0,0.25,0],[0,0.5,0],[0,0.75,0],[1,0.25,0],[1,0.5,0],[1,0.75,0]];outlineConnect=0;fontColor=#232F3E;gradientColor=#F54749;gradientDirection=north;fillColor=#C7131F;strokeColor=#ffffff;dashed=0;verticalLabelPosition=bottom;verticalAlign=top;align=center;html=1;fontSize=12;fontStyle=0;aspect=fixed;shape=mxgraph.aws4.resourceIcon;resIcon=mxgraph.aws4.key_management_service;" parent="1" vertex="1">
          <mxGeometry x="786" y="500" width="78" height="78" as="geometry" />
        </mxCell>
        <mxCell id="logs" value="CloudWatch Logs" style="sketch=0;points=[[0,0,0],[0.25,0,0],[0.5,0,0],[0.75,0,0],[1,0,0],[0,1,0],[0.25,1,0],[0.5,1,0],[0.75,1,0],[1,1,0],[0,0.25,0],[0,0.5,0],[0,0.75,0],[1,0.25,0],[1,0.5,0],[1,0.75,0]];outlineConnect=0;fontColor=#232F3E;gradientColor=#F78E04;gradientDirection=north;fillColor=#D05C17;strokeColor=#ffffff;dashed=0;verticalLabelPosition=bottom;verticalAlign=top;align=center;html=1;fontSize=12;fontStyle=0;aspect=fixed;shape=mxgraph.aws4.resourceIcon;resIcon=mxgraph.aws4.cloudwatch;" parent="1" vertex="1">
          <mxGeometry x="1086" y="500" width="78" height="78" as="geometry" />
        </mxCell>
        <mxCell id="GsRXVs9v4z8RuMBvvd-P-12" value="" style="edgeStyle=orthogonalEdgeStyle;rounded=0;orthogonalLoop=1;jettySize=auto;html=1;dashed=1;" edge="1" parent="1" source="sync-lambda" target="datasource">
          <mxGeometry relative="1" as="geometry" />
        </mxCell>
        <mxCell id="GsRXVs9v4z8RuMBvvd-P-13" value="sync" style="edgeLabel;html=1;align=center;verticalAlign=middle;resizable=0;points=[];" vertex="1" connectable="0" parent="GsRXVs9v4z8RuMBvvd-P-12">
          <mxGeometry x="0.0435" relative="1" as="geometry">
            <mxPoint as="offset" />
          </mxGeometry>
        </mxCell>
        <mxCell id="sync-lambda" value="Automatic Datasource&lt;div&gt;Sync&lt;/div&gt;&lt;div&gt;(Optional)&lt;/div&gt;" style="sketch=0;points=[[0,0,0],[0.25,0,0],[0.5,0,0],[0.75,0,0],[1,0,0],[0,1,0],[0.25,1,0],[0.5,1,0],[0.75,1,0],[1,1,0],[0,0.25,0],[0,0.5,0],[0,0.75,0],[1,0.25,0],[1,0.5,0],[1,0.75,0]];outlineConnect=0;fontColor=#232F3E;gradientColor=#F78E04;gradientDirection=north;fillColor=#D05C17;strokeColor=#ffffff;dashed=0;verticalLabelPosition=bottom;verticalAlign=top;align=center;html=1;fontSize=12;fontStyle=0;aspect=fixed;shape=mxgraph.aws4.resourceIcon;resIcon=mxgraph.aws4.lambda;" parent="1" vertex="1">
          <mxGeometry x="337" y="309" width="78" height="78" as="geometry" />
        </mxCell>
        <mxCell id="eventbridge" value="EventBridge" style="sketch=0;points=[[0,0,0],[0.25,0,0],[0.5,0,0],[0.75,0,0],[1,0,0],[0,1,0],[0.25,1,0],[0.5,1,0],[0.75,1,0],[1,1,0],[0,0.25,0],[0,0.5,0],[0,0.75,0],[1,0.25,0],[1,0.5,0],[1,0.75,0]];outlineConnect=0;fontColor=#232F3E;gradientColor=#F78E04;gradientDirection=north;fillColor=#D05C17;strokeColor=#ffffff;dashed=0;verticalLabelPosition=bottom;verticalAlign=top;align=center;html=1;fontSize=12;fontStyle=0;aspect=fixed;shape=mxgraph.aws4.resourceIcon;resIcon=mxgraph.aws4.eventbridge;" parent="1" vertex="1">
          <mxGeometry x="160" y="210" width="78" height="78" as="geometry" />
        </mxCell>
        <mxCell id="kb-to-embedding" style="edgeStyle=orthogonalEdgeStyle;rounded=0;orthogonalLoop=1;jettySize=auto;html=1;exitX=0.5;exitY=0;exitDx=0;exitDy=0;exitPerimeter=0;" parent="1" source="GsRXVs9v4z8RuMBvvd-P-1" target="embedding" edge="1">
          <mxGeometry relative="1" as="geometry">
            <mxPoint x="825" y="300" as="sourcePoint" />
            <Array as="points">
              <mxPoint x="825" y="180" />
              <mxPoint x="715" y="180" />
            </Array>
          </mxGeometry>
        </mxCell>
        <mxCell id="kb-to-embedding-label" value="Uses for embeddings" style="edgeLabel;html=1;align=center;verticalAlign=middle;resizable=0;points=[];" parent="kb-to-embedding" vertex="1" connectable="0">
          <mxGeometry x="-0.1" y="2" relative="1" as="geometry">
            <mxPoint x="-58" y="-16" as="offset" />
          </mxGeometry>
        </mxCell>
        <mxCell id="GsRXVs9v4z8RuMBvvd-P-3" style="edgeStyle=orthogonalEdgeStyle;rounded=0;orthogonalLoop=1;jettySize=auto;html=1;" edge="1" parent="1" source="GsRXVs9v4z8RuMBvvd-P-1" target="datasource">
          <mxGeometry relative="1" as="geometry" />
        </mxCell>
        <mxCell id="GsRXVs9v4z8RuMBvvd-P-11" value="creates" style="edgeLabel;html=1;align=center;verticalAlign=middle;resizable=0;points=[];" vertex="1" connectable="0" parent="GsRXVs9v4z8RuMBvvd-P-3">
          <mxGeometry x="-0.1414" y="1" relative="1" as="geometry">
            <mxPoint as="offset" />
          </mxGeometry>
        </mxCell>
        <mxCell id="GsRXVs9v4z8RuMBvvd-P-4" style="edgeStyle=orthogonalEdgeStyle;rounded=0;orthogonalLoop=1;jettySize=auto;html=1;" edge="1" parent="1" source="GsRXVs9v4z8RuMBvvd-P-1" target="vector-store-container">
          <mxGeometry relative="1" as="geometry" />
        </mxCell>
        <mxCell id="GsRXVs9v4z8RuMBvvd-P-22" value="Sotres&lt;div&gt;Vector Embeddings&lt;/div&gt;" style="edgeLabel;html=1;align=center;verticalAlign=middle;resizable=0;points=[];" vertex="1" connectable="0" parent="GsRXVs9v4z8RuMBvvd-P-4">
          <mxGeometry x="0.1622" y="-1" relative="1" as="geometry">
            <mxPoint as="offset" />
          </mxGeometry>
        </mxCell>
        <mxCell id="GsRXVs9v4z8RuMBvvd-P-6" style="edgeStyle=orthogonalEdgeStyle;rounded=0;orthogonalLoop=1;jettySize=auto;html=1;dashed=1;" edge="1" parent="1" source="GsRXVs9v4z8RuMBvvd-P-1" target="GsRXVs9v4z8RuMBvvd-P-5">
          <mxGeometry relative="1" as="geometry">
            <Array as="points">
              <mxPoint x="825" y="180" />
              <mxPoint x="996" y="180" />
            </Array>
          </mxGeometry>
        </mxCell>
        <mxCell id="GsRXVs9v4z8RuMBvvd-P-7" value="Stores content&amp;nbsp;&lt;div&gt;for multimodal&lt;div&gt;data parsing&lt;/div&gt;&lt;/div&gt;" style="edgeLabel;html=1;align=center;verticalAlign=middle;resizable=0;points=[];" vertex="1" connectable="0" parent="GsRXVs9v4z8RuMBvvd-P-6">
          <mxGeometry x="0.125" y="1" relative="1" as="geometry">
            <mxPoint x="-16" y="1" as="offset" />
          </mxGeometry>
        </mxCell>
        <mxCell id="GsRXVs9v4z8RuMBvvd-P-1" value="Bedrock&lt;div&gt;Knowledge Base&lt;/div&gt;" style="sketch=0;points=[[0,0,0],[0.25,0,0],[0.5,0,0],[0.75,0,0],[1,0,0],[0,1,0],[0.25,1,0],[0.5,1,0],[0.75,1,0],[1,1,0],[0,0.25,0],[0,0.5,0],[0,0.75,0],[1,0.25,0],[1,0.5,0],[1,0.75,0]];outlineConnect=0;fontColor=#232F3E;fillColor=#01A88D;strokeColor=#ffffff;dashed=0;verticalLabelPosition=bottom;verticalAlign=top;align=center;html=1;fontSize=12;fontStyle=0;aspect=fixed;shape=mxgraph.aws4.resourceIcon;resIcon=mxgraph.aws4.bedrock;" vertex="1" parent="1">
          <mxGeometry x="786" y="260" width="78" height="78" as="geometry" />
        </mxCell>
        <mxCell id="GsRXVs9v4z8RuMBvvd-P-5" value="Multimodal Storage Desitnation" style="sketch=0;points=[[0,0,0],[0.25,0,0],[0.5,0,0],[0.75,0,0],[1,0,0],[0,1,0],[0.25,1,0],[0.5,1,0],[0.75,1,0],[1,1,0],[0,0.25,0],[0,0.5,0],[0,0.75,0],[1,0.25,0],[1,0.5,0],[1,0.75,0]];outlineConnect=0;fontColor=#232F3E;gradientColor=#60A337;gradientDirection=north;fillColor=#277116;strokeColor=#ffffff;dashed=0;verticalLabelPosition=bottom;verticalAlign=top;align=center;html=1;fontSize=12;fontStyle=0;aspect=fixed;shape=mxgraph.aws4.resourceIcon;resIcon=mxgraph.aws4.s3;" vertex="1" parent="1">
          <mxGeometry x="956" y="20" width="78" height="78" as="geometry" />
        </mxCell>
        <mxCell id="GsRXVs9v4z8RuMBvvd-P-8" value="Logs" style="edgeStyle=orthogonalEdgeStyle;rounded=0;orthogonalLoop=1;jettySize=auto;html=1;entryX=0;entryY=0.5;entryDx=0;entryDy=0;entryPerimeter=0;" edge="1" parent="1" source="GsRXVs9v4z8RuMBvvd-P-1" target="logs">
          <mxGeometry relative="1" as="geometry">
            <Array as="points">
              <mxPoint x="916" y="299" />
              <mxPoint x="916" y="539" />
            </Array>
          </mxGeometry>
        </mxCell>
        <mxCell id="GsRXVs9v4z8RuMBvvd-P-14" style="edgeStyle=orthogonalEdgeStyle;rounded=0;orthogonalLoop=1;jettySize=auto;html=1;entryX=0.5;entryY=0;entryDx=0;entryDy=0;entryPerimeter=0;" edge="1" parent="1" source="s3" target="eventbridge">
          <mxGeometry relative="1" as="geometry" />
        </mxCell>
        <mxCell id="GsRXVs9v4z8RuMBvvd-P-15" value="s3 event(s)" style="edgeLabel;html=1;align=center;verticalAlign=middle;resizable=0;points=[];" vertex="1" connectable="0" parent="GsRXVs9v4z8RuMBvvd-P-14">
          <mxGeometry x="0.1261" y="-1" relative="1" as="geometry">
            <mxPoint as="offset" />
          </mxGeometry>
        </mxCell>
        <mxCell id="GsRXVs9v4z8RuMBvvd-P-16" value="uses" style="edgeStyle=orthogonalEdgeStyle;rounded=0;orthogonalLoop=1;jettySize=auto;html=1;entryX=0.5;entryY=0;entryDx=0;entryDy=0;entryPerimeter=0;" edge="1" parent="1" source="GsRXVs9v4z8RuMBvvd-P-1" target="kb-kms">
          <mxGeometry relative="1" as="geometry" />
        </mxCell>
        <mxCell id="GsRXVs9v4z8RuMBvvd-P-17" value="Foundation Model" style="sketch=0;outlineConnect=0;fontColor=#232F3E;gradientColor=none;fillColor=#067F68;strokeColor=none;dashed=0;verticalLabelPosition=bottom;verticalAlign=top;align=center;html=1;fontSize=12;fontStyle=0;aspect=fixed;pointerEvents=1;shape=mxgraph.aws4.sagemaker_model;" vertex="1" parent="1">
          <mxGeometry x="476" y="10" width="78" height="78" as="geometry" />
        </mxCell>
        <mxCell id="GsRXVs9v4z8RuMBvvd-P-20" style="edgeStyle=orthogonalEdgeStyle;rounded=0;orthogonalLoop=1;jettySize=auto;html=1;entryX=0;entryY=0.5;entryDx=0;entryDy=0;entryPerimeter=0;dashed=1;" edge="1" parent="1" source="eventbridge" target="sync-lambda">
          <mxGeometry relative="1" as="geometry">
            <Array as="points">
              <mxPoint x="200" y="348" />
            </Array>
          </mxGeometry>
        </mxCell>
        <mxCell id="GsRXVs9v4z8RuMBvvd-P-21" value="triggers" style="edgeLabel;html=1;align=center;verticalAlign=middle;resizable=0;points=[];" vertex="1" connectable="0" parent="GsRXVs9v4z8RuMBvvd-P-20">
          <mxGeometry x="-0.0718" y="1" relative="1" as="geometry">
            <mxPoint as="offset" />
          </mxGeometry>
        </mxCell>
        <mxCell id="GsRXVs9v4z8RuMBvvd-P-27" value="Future Other Vector Store" style="rounded=0;whiteSpace=wrap;html=1;labelPosition=center;verticalLabelPosition=bottom;align=center;verticalAlign=top;fillColor=none;strokeColor=default;dashed=1;" vertex="1" parent="1">
          <mxGeometry x="1230" y="220" width="114" height="230" as="geometry" />
        </mxCell>
        <mxCell id="GsRXVs9v4z8RuMBvvd-P-28" value="&lt;i&gt;Required for Bedrock Data Automation&amp;nbsp;&lt;/i&gt;&lt;div&gt;&lt;i&gt;&amp;amp; Foundation Model Parsing&lt;/i&gt;&lt;/div&gt;" style="text;html=1;align=center;verticalAlign=middle;resizable=0;points=[];autosize=1;strokeColor=none;fillColor=none;" vertex="1" parent="1">
          <mxGeometry x="1050" y="39" width="230" height="40" as="geometry" />
        </mxCell>
        <mxCell id="GsRXVs9v4z8RuMBvvd-P-29" value="CAEF/CDK" style="sketch=0;points=[[0,0,0],[0.25,0,0],[0.5,0,0],[0.75,0,0],[1,0,0],[0,1,0],[0.25,1,0],[0.5,1,0],[0.75,1,0],[1,1,0],[0,0.25,0],[0,0.5,0],[0,0.75,0],[1,0.25,0],[1,0.5,0],[1,0.75,0]];outlineConnect=0;fontColor=#232F3E;gradientColor=#4D72F3;gradientDirection=north;fillColor=#3334B9;strokeColor=#ffffff;dashed=0;verticalLabelPosition=bottom;verticalAlign=top;align=center;html=1;fontSize=20;fontStyle=0;aspect=fixed;shape=mxgraph.aws4.resourceIcon;resIcon=mxgraph.aws4.cloud_development_kit;" vertex="1" parent="1">
          <mxGeometry x="30" y="403" width="78" height="78" as="geometry" />
        </mxCell>
        <mxCell id="GsRXVs9v4z8RuMBvvd-P-31" value="Deploy" style="edgeStyle=orthogonalEdgeStyle;rounded=0;orthogonalLoop=1;jettySize=auto;html=1;entryX=0.013;entryY=0.554;entryDx=0;entryDy=0;entryPerimeter=0;fontSize=13;" edge="1" parent="1" source="GsRXVs9v4z8RuMBvvd-P-29" target="container">
          <mxGeometry relative="1" as="geometry" />
        </mxCell>
        <mxCell id="GsRXVs9v4z8RuMBvvd-P-33" style="edgeStyle=orthogonalEdgeStyle;rounded=0;orthogonalLoop=1;jettySize=auto;html=1;entryX=1;entryY=0.5;entryDx=0;entryDy=0;" edge="1" parent="1" source="GsRXVs9v4z8RuMBvvd-P-32" target="kb-role-bg">
          <mxGeometry relative="1" as="geometry" />
        </mxCell>
        <mxCell id="GsRXVs9v4z8RuMBvvd-P-34" value="Attached" style="edgeLabel;html=1;align=center;verticalAlign=middle;resizable=0;points=[];" vertex="1" connectable="0" parent="GsRXVs9v4z8RuMBvvd-P-33">
          <mxGeometry x="0.5381" y="2" relative="1" as="geometry">
            <mxPoint as="offset" />
          </mxGeometry>
        </mxCell>
        <mxCell id="GsRXVs9v4z8RuMBvvd-P-32" value="Vector Store Policies" style="sketch=0;points=[[0,0,0],[0.25,0,0],[0.5,0,0],[0.75,0,0],[1,0,0],[0,1,0],[0.25,1,0],[0.5,1,0],[0.75,1,0],[1,1,0],[0,0.25,0],[0,0.5,0],[0,0.75,0],[1,0.25,0],[1,0.5,0],[1,0.75,0]];outlineConnect=0;fontColor=#232F3E;gradientColor=#F54749;gradientDirection=north;fillColor=#C7131F;strokeColor=#ffffff;dashed=0;verticalLabelPosition=bottom;verticalAlign=top;align=center;html=1;fontSize=12;fontStyle=0;aspect=fixed;shape=mxgraph.aws4.resourceIcon;resIcon=mxgraph.aws4.identity_and_access_management;" vertex="1" parent="1">
          <mxGeometry x="407" y="660" width="69" height="69" as="geometry" />
        </mxCell>
        <mxCell id="GsRXVs9v4z8RuMBvvd-P-35" value="Deployment/Target&lt;br style=&quot;font-size: 20px;&quot;&gt;Account" style="outlineConnect=0;dashed=0;verticalLabelPosition=middle;verticalAlign=middle;align=left;html=1;shape=mxgraph.aws3.cloud_2;fillColor=#F58534;gradientColor=none;labelPosition=right;fontSize=20;" vertex="1" parent="1">
          <mxGeometry x="5" y="9" width="60" height="60" as="geometry" />
        </mxCell>
      </root>
    </mxGraphModel>
  </diagram>
</mxfile>
